<svg xmlns="http://www.w3.org/2000/svg" xmlns:xlink="http://www.w3.org/1999/xlink" version="1.1" width="1000" height="1000" viewBox="0 0 1000 1000" xml:space="preserve">
<desc>Created with Fabric.js 3.5.0</desc>
<defs>
</defs>
<rect x="0" y="0" width="100%" height="100%" fill="rgba(255,255,255,0)"/>
<g transform="matrix(37.8788 0 0 37.8788 500.0001 500.0001)" id="864203">
<path style="stroke: none; stroke-width: 1; stroke-dasharray: none; stroke-linecap: butt; stroke-dashoffset: 0; stroke-linejoin: miter; stroke-miterlimit: 4; is-custom-font: none; font-file-url: none; fill: rgb(255,255,255); fill-rule: nonzero; opacity: 1;" vector-effect="non-scaling-stroke" transform=" translate(-12, -12)" d="M 10.719 2.082 c -2.572 2.028 -4.719 5.212 -4.719 9.918 c 0 4.569 1.938 7.798 4.548 9.895 c -4.829 -0.705 -8.548 -4.874 -8.548 -9.895 c 0 -5.08 3.808 -9.288 8.719 -9.918 z m 1.281 -2.082 c -6.617 0 -12 5.383 -12 12 s 5.383 12 12 12 c 1.894 0 3.87 -0.333 5.37 -1.179 c -3.453 -0.613 -9.37 -3.367 -9.37 -10.821 c 0 -7.555 6.422 -10.317 9.37 -10.821 c -1.74 -0.682 -3.476 -1.179 -5.37 -1.179 z m 0 10.999 c 1.437 0.438 2.562 1.564 2.999 3.001 c 0.44 -1.437 1.565 -2.562 3.001 -3 c -1.436 -0.439 -2.561 -1.563 -3.001 -3 c -0.437 1.436 -1.562 2.561 -2.999 2.999 z m 8.001 0.001 c 0.958 0.293 1.707 1.042 2 2.001 c 0.291 -0.959 1.042 -1.709 1.999 -2.001 c -0.957 -0.292 -1.707 -1.042 -2 -2 c -0.293 0.958 -1.042 1.708 -1.999 2 z m -1 -9 c -0.437 1.437 -1.563 2.562 -2.998 3.001 c 1.438 0.44 2.561 1.564 3.001 3.002 c 0.437 -1.438 1.563 -2.563 2.996 -3.002 c -1.433 -0.437 -2.559 -1.564 -2.999 -3.001 z" stroke-linecap="round"/>
</g>
</svg>