<svg xmlns="http://www.w3.org/2000/svg" xmlns:xlink="http://www.w3.org/1999/xlink" version="1.1" width="1000" height="1000" viewBox="0 0 1000 1000" xml:space="preserve">
<desc>Created with Fabric.js 3.5.0</desc>
<defs>
</defs>
<rect x="0" y="0" width="100%" height="100%" fill="rgba(255,255,255,0)"/>
<g transform="matrix(37.8788 0 0 37.8788 500.0001 500.0001)" id="130882">
<path style="stroke: none; stroke-width: 1; stroke-dasharray: none; stroke-linecap: butt; stroke-dashoffset: 0; stroke-linejoin: miter; stroke-miterlimit: 4; is-custom-font: none; font-file-url: none; fill: rgb(255,255,255); fill-rule: nonzero; opacity: 1;" vector-effect="non-scaling-stroke" transform=" translate(-12, -12)" d="M 4.069 13 h -4.069 v -2 h 4.069 c -0.041 0.328 -0.069 0.661 -0.069 1 s 0.028 0.672 0.069 1 z m 3.034 -7.312 l -2.881 -2.881 l -1.414 1.414 l 2.881 2.881 c 0.411 -0.529 0.885 -1.003 1.414 -1.414 z m 11.209 1.414 l 2.881 -2.881 l -1.414 -1.414 l -2.881 2.881 c 0.528 0.411 1.002 0.886 1.414 1.414 z m -6.312 -3.102 c 0.339 0 0.672 0.028 1 0.069 v -4.069 h -2 v 4.069 c 0.328 -0.041 0.661 -0.069 1 -0.069 z m 0 16 c -0.339 0 -0.672 -0.028 -1 -0.069 v 4.069 h 2 v -4.069 c -0.328 0.041 -0.661 0.069 -1 0.069 z m 7.931 -9 c 0.041 0.328 0.069 0.661 0.069 1 s -0.028 0.672 -0.069 1 h 4.069 v -2 h -4.069 z m -3.033 7.312 l 2.88 2.88 l 1.415 -1.414 l -2.88 -2.88 c -0.412 0.528 -0.886 1.002 -1.415 1.414 z m -11.21 -1.415 l -2.88 2.88 l 1.414 1.414 l 2.88 -2.88 c -0.528 -0.411 -1.003 -0.885 -1.414 -1.414 z m 2.312 -4.897 c 0 2.206 1.794 4 4 4 s 4 -1.794 4 -4 s -1.794 -4 -4 -4 s -4 1.794 -4 4 z m 10 0 c 0 3.314 -2.686 6 -6 6 s -6 -2.686 -6 -6 s 2.686 -6 6 -6 s 6 2.686 6 6 z" stroke-linecap="round"/>
</g>
</svg>